<?xml version="1.0" encoding="UTF-8"?>
<svg version="1.1" xmlns="http://www.w3.org/2000/svg" width="512" height="512">
<path d="M0 0 C4.7169774 2.66329287 7.10711554 5.19668759 9.78027344 9.87011719 C23.71107558 33.10769178 43.3514583 57.53406735 70.68710625 64.63477957 C92.6162738 69.8434665 115.43507638 70.4879129 137.875 70.5 C139.09221945 70.50224185 139.09221945 70.50224185 140.3340292 70.504529 C177.96277382 70.51333266 214.55372354 69.16851455 242.75830078 41.15039062 C253.32242436 30.04201791 262.42438484 17.75924513 270.18563843 4.55630493 C272.02795454 1.96061407 273.02970502 1.00475677 276 0 C281.51623758 -0.66071926 286.4234205 -0.73198334 291.5 1.625 C295.42799167 5.35659208 298.17211168 8.65616535 298.48266888 14.18579006 C298.49504462 15.82463382 298.48548528 17.46373475 298.4584198 19.10240173 C298.45957096 20.00913795 298.46072212 20.91587416 298.46190816 21.85008723 C298.46113417 24.88341153 298.43195499 27.91579761 298.40307617 30.94897461 C298.39707549 33.12566201 298.39296199 35.3023553 298.39059448 37.47904968 C298.3822196 42.16411761 298.36198777 46.84893312 298.33302879 51.53391838 C298.2888323 58.94204715 298.28028627 66.34994912 298.27839661 73.75819397 C298.26784527 94.8232835 298.21423105 115.88805008 298.11352539 136.95288086 C298.05820823 148.58869975 298.03505202 160.22413749 298.04685193 171.8600865 C298.05243719 179.22481139 298.01797526 186.58792334 297.95404947 193.95235622 C297.92370625 198.5340627 297.93092184 203.1151378 297.94880295 207.69688606 C297.94955926 209.82096724 297.93488087 211.94511864 297.90360832 214.06896973 C297.28947884 224.9625221 297.28947884 224.9625221 300.97608376 234.77537727 C303.26002528 236.58223874 305.35610799 237.80623821 308 239 C319.80477536 247.89083362 327.84391894 262.44730442 330 277 C330.29690562 282.23528379 330.29451521 287.4642666 330.29052734 292.70581055 C330.29652023 294.28359289 330.30332751 295.86137231 330.31088257 297.43914795 C330.328463 301.70129449 330.3332343 305.96336062 330.33451414 310.22553992 C330.33593973 312.89089075 330.34021682 315.55622137 330.34550858 318.22156715 C330.36397575 327.52638668 330.37218251 336.83114908 330.37060547 346.13598633 C330.36940188 354.80156638 330.39055522 363.46689826 330.4220928 372.13241547 C330.44824375 379.58402096 330.45897341 387.03554524 330.45769465 394.48719627 C330.45718508 398.93294102 330.46286664 403.37846452 330.48405075 407.82416344 C330.50341575 412.00136884 330.50356978 416.17814126 330.48901749 420.35536194 C330.48692679 421.88639776 330.49164592 423.4174606 330.5037384 424.94845009 C330.51920001 427.04175869 330.50987962 429.13357544 330.49447632 431.22685242 C330.49556585 432.39690166 330.49665539 433.56695089 330.49777794 434.77245617 C329.71377173 439.85587632 327.16342325 442.93790751 323.43237305 446.34399414 C318.59952042 448.67568483 314.38227977 448.55526151 309.08203125 448.49609375 C308.02900314 448.49754898 306.97597504 448.49900421 305.89103699 448.50050354 C303.66618074 448.49884688 301.44131275 448.4873118 299.21655273 448.46655273 C295.84112805 448.43774433 292.46729025 448.44592113 289.09179688 448.45898438 C286.92186747 448.4527416 284.75194299 448.44434647 282.58203125 448.43359375 C281.58581253 448.43652939 280.58959381 448.43946503 279.56318665 448.44248962 C269.70786662 448.31238554 260.77707596 445.87787998 252 441.4375 C250.98534668 440.92848145 250.98534668 440.92848145 249.95019531 440.40917969 C243.32387468 436.91850058 238.2221543 432.36822855 233 427 C232.24203125 426.24203125 231.4840625 425.4840625 230.703125 424.703125 C230.14109375 424.14109375 229.5790625 423.5790625 229 423 C228.61070312 423.42410156 228.22140625 423.84820312 227.8203125 424.28515625 C214.3432641 438.41431989 195.4312911 447.74760583 175.81633472 448.46928692 C171.33509562 448.55438845 166.85683242 448.55331359 162.375 448.53125 C160.41454883 448.53395315 158.45409899 448.53784236 156.49365234 448.54284668 C152.40904829 448.54870308 148.32479701 448.54030451 144.24023438 448.52148438 C139.04600936 448.49869733 133.85261154 448.51184132 128.65841675 448.53577423 C124.61737005 448.55033737 120.57651438 448.54557844 116.53546143 448.53526306 C114.62200824 448.53262472 112.7085368 448.53576165 110.79510498 448.54518127 C96.2089487 448.60125705 82.89993388 447.23971323 69.75 440.3125 C69.09088623 439.97508789 68.43177246 439.63767578 67.75268555 439.29003906 C61.48146208 435.95413579 56.29902478 431.72207903 51 427 C49.34058321 425.65765448 47.6759195 424.3216843 46 423 C45.46632813 423.64066406 44.93265625 424.28132813 44.3828125 424.94140625 C33.62310497 437.432347 19.17946559 446.92374255 2.34779358 448.2013092 C-0.56528069 448.29505591 -3.4721439 448.32949284 -6.38671875 448.3359375 C-7.44736038 448.3425943 -8.50800201 448.3492511 -9.6007843 448.35610962 C-11.82864663 448.36617908 -14.05653877 448.37092842 -16.28442383 448.37060547 C-19.68816345 448.37500086 -23.09062791 448.41144283 -26.49414062 448.44921875 C-28.66666226 448.45508369 -30.83919001 448.45905524 -33.01171875 448.4609375 C-34.02433273 448.47530853 -35.03694672 448.48967957 -36.08024597 448.50448608 C-41.878409 448.46699049 -45.53807339 448.08411417 -50 444 C-53.42815333 439.61326129 -54.5002105 436.7904378 -54.50120544 431.24031067 C-54.50673984 430.58549341 -54.51227424 429.93067616 -54.51797634 429.25601596 C-54.53152399 427.07498789 -54.51664701 424.89511605 -54.50170898 422.71411133 C-54.50549452 421.14488236 -54.5109965 419.57565674 -54.51808167 418.00643921 C-54.53202879 413.75191694 -54.52086925 409.49779947 -54.50437045 405.24329972 C-54.49049391 400.78147474 -54.49698346 396.31967265 -54.50050354 391.85783386 C-54.50320501 384.36015324 -54.48974034 376.86263274 -54.46655273 369.36499023 C-54.4399919 360.71720452 -54.43818071 352.06968731 -54.4499411 343.42187482 C-54.46075465 335.08498909 -54.45450069 326.74819975 -54.44038582 318.41132164 C-54.43465207 314.87291858 -54.43468816 311.33458666 -54.43945122 307.79618263 C-54.444255 303.61902544 -54.43397987 299.44215867 -54.41249657 295.26505661 C-54.40697272 293.73936505 -54.40642246 292.21364532 -54.41144943 290.68795204 C-54.46366604 272.55362309 -49.45547144 257.61182942 -37.66009521 243.63747883 C-34.8738784 240.8749507 -32.19653914 239.40895831 -28.78613281 237.50737 C-24.75507583 234.50025915 -22.79205747 232.65287115 -21.90734863 227.66056252 C-21.34870724 222.01032088 -21.49480123 216.3632974 -21.609375 210.69458008 C-21.6094459 208.51581732 -21.60417484 206.33704884 -21.59397888 204.15830994 C-21.58090865 198.25672393 -21.64092424 192.35785879 -21.71306992 186.45678544 C-21.7749574 180.27768029 -21.76565157 174.09871199 -21.76293945 167.9193573 C-21.76786798 156.21780202 -21.83039607 144.51735591 -21.91655636 132.81614369 C-22.06904993 111.85232506 -22.12393298 90.88813723 -22.15734291 69.923814 C-22.17135447 62.56666341 -22.21064949 55.21019631 -22.27104855 47.85328448 C-22.30550566 43.28059042 -22.32418106 38.70792074 -22.3393116 34.13512611 C-22.3499626 32.01385285 -22.36759503 29.8926015 -22.39269829 27.77145004 C-22.42619682 24.87703488 -22.43514532 21.98352727 -22.43823242 19.08894348 C-22.45417828 18.24876909 -22.47012413 17.40859469 -22.48655319 16.54296046 C-22.45886859 11.20941138 -21.50632118 8.24999008 -18 4 C-12.87322962 -0.87043186 -6.74482111 -1.1943954 0 0 Z " fill="#342EAA" transform="translate(118,32)"/>
<path d="M0 0 C7.87130528 6.7468331 7.87130528 6.7468331 10.66870117 9.58691406 C11.60953804 10.5375473 11.60953804 10.5375473 12.56938171 11.50738525 C13.22066544 12.17010437 13.87194916 12.83282349 14.54296875 13.515625 C15.96015461 14.94544319 17.37747627 16.3751268 18.79492188 17.8046875 C21.00217449 20.03684599 23.20778099 22.27058608 25.41088867 24.50683594 C27.55470839 26.68081017 29.70466638 28.84856195 31.85546875 31.015625 C32.51282516 31.68644104 33.17018158 32.35725708 33.84745789 33.04840088 C34.46522598 33.66954773 35.08299408 34.29069458 35.71948242 34.93066406 C36.2579631 35.47660217 36.79644379 36.02254028 37.35124207 36.58502197 C41.34084495 40.00893297 44.65523855 40.25204908 49.85653687 40.26069641 C50.54584152 40.26452196 51.23514617 40.26834751 51.94533885 40.27228898 C54.25448973 40.28260559 56.56339133 40.27862942 58.87255859 40.2746582 C60.52841929 40.27900546 62.18427798 40.28418865 63.84013367 40.29014587 C68.33811273 40.30354656 72.83600783 40.30411329 77.33400297 40.30158257 C81.088976 40.30051346 84.843932 40.30539477 88.59890139 40.310188 C97.4581998 40.32128716 106.31745581 40.32171847 115.17675781 40.31567383 C124.31536496 40.30963445 133.45381813 40.32194319 142.592399 40.3432439 C150.43880297 40.36086007 158.28515793 40.36686118 166.13158095 40.36360615 C170.81768645 40.36179298 175.50368215 40.3644328 180.18976974 40.37832069 C184.59748887 40.39089446 189.00496806 40.38895923 193.41268349 40.37590981 C195.02917499 40.37354338 196.64568336 40.37628108 198.26215553 40.38453293 C200.47154708 40.39499702 202.68013306 40.38690319 204.88949585 40.3742218 C206.74280297 40.37447341 206.74280297 40.37447341 208.63355064 40.37473011 C214.29949835 39.74403558 218.12971291 37.25436524 222.06176758 33.26293945 C222.79885452 32.52239822 223.53594147 31.78185699 224.29536438 31.01887512 C225.45820198 29.82810616 225.45820198 29.82810616 226.64453125 28.61328125 C227.45492355 27.79627243 228.26531586 26.97926361 229.1002655 26.13749695 C231.67822773 23.53618702 234.2457781 20.92489738 236.8125 18.3125 C239.39881273 15.69118202 241.98723982 13.0720005 244.57829285 10.45536804 C246.18848097 8.82813088 247.79558108 7.19783147 249.39936829 5.56428528 C250.4813575 4.46765816 250.4813575 4.46765816 251.58520508 3.34887695 C252.54067986 2.37649834 252.54067986 2.37649834 253.51545715 1.38447571 C255 0 255 0 256 0 C256 55.77 256 111.54 256 169 C243.79 169.33 231.58 169.66 219 170 C212.60390022 174.03125708 212.60390022 174.03125708 209 180 C208.4274281 184.42413682 208.46727791 188.81065548 208.50170898 193.26635742 C208.49788242 194.61884152 208.4922605 195.97132156 208.48498535 197.3237915 C208.47305773 200.22944468 208.47350636 203.13473634 208.48357964 206.04039574 C208.49918853 210.64370501 208.48542738 215.2466459 208.46754456 219.84992981 C208.43675102 228.79885145 208.43522115 237.74765992 208.43719482 246.69662476 C208.43858813 258.06895644 208.4280793 269.44120003 208.3886171 280.8134678 C208.37376209 285.38000333 208.37389524 289.94620994 208.38609493 294.51275003 C208.3908394 297.36713951 208.38323421 300.22140578 208.37255096 303.07577515 C208.36903674 305.00949388 208.38035433 306.94322225 208.39228821 308.87690735 C208.30555739 323.97078419 203.9842338 336.6202696 193.5234375 347.671875 C183.49653469 356.92270174 172.05916542 361.07622115 158.5703125 361.17700195 C157.83943924 361.18357315 157.10856598 361.19014435 156.35554504 361.19691467 C153.9453621 361.21656295 151.53524142 361.22829509 149.125 361.23828125 C147.88195602 361.24439454 147.88195602 361.24439454 146.61380005 361.25063133 C142.22219089 361.27146217 137.83061265 361.28577333 133.43896484 361.29516602 C128.93485375 361.30618741 124.43124253 361.34054604 119.92730713 361.38033772 C116.43710505 361.40667128 112.94701872 361.41487286 109.45672607 361.41844749 C107.79836678 361.42327517 106.14001129 361.43477802 104.48175049 361.45348549 C87.81541714 361.6297275 73.95467472 358.3878703 61.25 346.8125 C50.0853314 334.78901074 47.5328617 320.84583095 47.63110352 304.97314453 C47.62862873 303.61166584 47.6247835 302.25018907 47.61968994 300.88871765 C47.61142282 297.98321241 47.612098 295.07790366 47.61987495 292.17239761 C47.63155599 287.57422224 47.61921689 282.97629458 47.60325623 278.37814331 C47.56723941 266.9679915 47.56083605 255.55784763 47.56335449 244.14764404 C47.56506676 235.25569769 47.55794385 226.36395658 47.52337593 217.47206771 C47.50661539 212.9040782 47.50834523 208.33659084 47.52419865 203.76860356 C47.53000153 200.92861764 47.5192467 198.08886939 47.50395203 195.24892616 C47.49846164 193.3107227 47.51282116 191.37249466 47.52781677 189.43434143 C47.47488858 183.02109711 47.42820301 178.82370999 43 174 C31.66642885 164.04019505 13.33732132 169.37048115 0 169 C0 113.23 0 57.46 0 0 Z " fill="#6DB1E9" transform="translate(128,87)"/>
<path d="M0 0 C9.39920539 8.66886173 14.89920891 19.6119873 15.87109375 32.27734375 C16.4113583 47.12643292 11.59079124 59.79359319 1.625 70.7578125 C-8.54131957 80.47612477 -21.75769991 84.54791496 -35.59375 84.31640625 C-48.81005918 83.4562539 -60.01950435 77.54394883 -69.078125 67.98046875 C-78.83886808 55.61354087 -81.51447178 42.14198875 -80.16796875 26.6953125 C-78.18968791 14.86910615 -70.59531369 4.37987968 -61.375 -2.9296875 C-41.47002581 -15.94168764 -18.65314868 -15.1556833 0 0 Z " fill="#342EAA" transform="translate(352.375,171.9296875)"/>
<path d="M0 0 C9.39920539 8.66886173 14.89920891 19.6119873 15.87109375 32.27734375 C16.4113583 47.12643292 11.59079124 59.79359319 1.625 70.7578125 C-8.54131957 80.47612477 -21.75769991 84.54791496 -35.59375 84.31640625 C-48.81005918 83.4562539 -60.01950435 77.54394883 -69.078125 67.98046875 C-78.83886808 55.61354087 -81.51447178 42.14198875 -80.16796875 26.6953125 C-78.18968791 14.86910615 -70.59531369 4.37987968 -61.375 -2.9296875 C-41.47002581 -15.94168764 -18.65314868 -15.1556833 0 0 Z " fill="#342EAA" transform="translate(224.375,171.9296875)"/>
<path d="M0 0 C3.52074837 -0.06404073 7.0413448 -0.10257202 10.5625 -0.13671875 C11.55314453 -0.15504761 12.54378906 -0.17337646 13.56445312 -0.19226074 C21.44773747 -0.24955205 27.19315095 0.78957791 34 5 C34.90878906 5.54140625 34.90878906 5.54140625 35.8359375 6.09375 C42.17285071 10.5971401 45.88426755 18.74949885 48 26 C48.24609566 28.83101463 48.24609566 28.83101463 48.24050903 31.8086853 C48.24325836 32.94442993 48.24600769 34.08017456 48.24884033 35.25033569 C48.24164978 36.481763 48.23445923 37.71319031 48.22705078 38.98193359 C48.22734283 40.28978821 48.22763489 41.59764282 48.22793579 42.94512939 C48.22850815 46.51909571 48.21677291 50.09292699 48.20278788 53.66686201 C48.19026093 57.4064512 48.18910847 61.1460437 48.18673706 64.88565063 C48.18052806 71.96159085 48.16412511 79.03746904 48.14403808 86.11338198 C48.12166102 94.17140019 48.11068111 102.2294214 48.10064721 110.28746295 C48.07975835 126.8583449 48.04459367 143.42916453 48 160 C44.47925163 160.06404073 40.9586552 160.10257202 37.4375 160.13671875 C36.44685547 160.15504761 35.45621094 160.17337646 34.43554688 160.19226074 C26.55226253 160.24955205 20.80684905 159.21042209 14 155 C13.09121094 154.45859375 13.09121094 154.45859375 12.1640625 153.90625 C5.82714929 149.4028599 2.11573245 141.25050115 0 134 C-0.24609566 131.16898537 -0.24609566 131.16898537 -0.24050903 128.1913147 C-0.24463303 126.48769775 -0.24463303 126.48769775 -0.24884033 124.74966431 C-0.24164978 123.518237 -0.23445923 122.28680969 -0.22705078 121.01806641 C-0.22734283 119.71021179 -0.22763489 118.40235718 -0.22793579 117.05487061 C-0.22850815 113.48090429 -0.21677291 109.90707301 -0.20278788 106.33313799 C-0.19026093 102.5935488 -0.18910847 98.8539563 -0.18673706 95.11434937 C-0.18052806 88.03840915 -0.16412511 80.96253096 -0.14403808 73.88661802 C-0.12166102 65.82859981 -0.11068111 57.7705786 -0.10064721 49.71253705 C-0.07975835 33.1416551 -0.04459367 16.57083547 0 0 Z " fill="#6DB1E9" transform="translate(368,288)"/>
<path d="M0 0 C1.51980469 0.02030273 1.51980469 0.02030273 3.0703125 0.04101562 C5.54744404 0.07606937 8.02342927 0.12520236 10.5 0.1875 C10.61709376 17.45162109 10.70511504 34.71561726 10.75906086 51.98004532 C10.78478092 59.99724904 10.8198118 68.01420522 10.87719727 76.03125 C10.92722328 83.02350915 10.95933601 90.01558892 10.97044247 97.00802207 C10.97692904 100.70640268 10.99204217 104.40427037 11.02865028 108.10248566 C11.06930306 112.24335434 11.06993723 116.38334616 11.06762695 120.52441406 C11.08560333 121.73426971 11.10357971 122.94412537 11.12210083 124.19064331 C11.06626537 133.48387328 8.86961416 141.94812971 3.3125 149.5625 C-5.985768 158.24088346 -15.63114247 160.54621388 -28 160.3125 C-28.9178125 160.30347656 -29.835625 160.29445313 -30.78125 160.28515625 C-33.02111556 160.26182432 -35.26041183 160.22909235 -37.5 160.1875 C-37.59360859 142.8888155 -37.66405989 125.5902105 -37.70724869 108.29133034 C-37.72783862 100.25842425 -37.75589052 92.22567591 -37.80175781 84.19287109 C-37.84173537 77.18817992 -37.86745874 70.18360304 -37.87635398 63.17880094 C-37.88155036 59.47274136 -37.8936882 55.76700864 -37.92292023 52.06105423 C-37.95535526 47.91506957 -37.95595245 43.76964642 -37.95410156 39.62353516 C-37.96848267 38.40648895 -37.98286377 37.18944275 -37.99768066 35.93551636 C-37.94980212 25.99835028 -35.59458817 16.53418013 -28.5 9.1875 C-19.53430276 1.90501795 -11.35039055 -0.29046275 0 0 Z " fill="#6DB1E9" transform="translate(133.5,287.8125)"/>
<path d="M0 0 C5.12783613 3.69751982 10.23027213 7.90363724 12.6328125 13.8984375 C12.96875 15.9765625 12.96875 15.9765625 13.0078125 18.1484375 C13.03617187 18.85484375 13.06453125 19.56125 13.09375 20.2890625 C11.75946909 27.84244936 6.33077828 34.61407969 2.109375 40.83984375 C1.48557953 41.76635239 0.86178406 42.69286102 0.21908569 43.64744568 C-1.09476383 45.59621677 -2.41099913 47.54338129 -3.72949219 49.48901367 C-5.73543265 52.45096337 -7.73148525 55.41939741 -9.7265625 58.38867188 C-11.00982909 60.28945932 -12.29366442 62.18986294 -13.578125 64.08984375 C-14.16894867 64.96919083 -14.75977234 65.8485379 -15.36849976 66.75453186 C-25.50795441 81.67208639 -25.50795441 81.67208639 -31.3671875 82.8984375 C-35.90199826 83.42946553 -39.30043427 83.38914399 -43.4921875 81.4609375 C-50.3888965 75.31387078 -55.32114539 67.17564975 -60.359375 59.5 C-60.990784 58.54322357 -61.62219299 57.58644714 -62.2727356 56.60067749 C-63.59379939 54.59679966 -64.91302267 52.59170735 -66.23046875 50.58544922 C-68.25244676 47.507822 -70.28207419 44.43533996 -72.3125 41.36328125 C-73.59941532 39.40915504 -74.88588964 37.45473832 -76.171875 35.5 C-76.77909393 34.58127106 -77.38631287 33.66254211 -78.01193237 32.7159729 C-78.56986481 31.86433563 -79.12779724 31.01269836 -79.70263672 30.13525391 C-80.19448456 29.38740631 -80.6863324 28.63955872 -81.19308472 27.86904907 C-83.84998728 23.40970955 -83.9582997 18.94027687 -83.3671875 13.8984375 C-79.23966298 5.1050157 -70.69656981 -0.24560654 -62.3046875 -4.4765625 C-61.64436523 -4.81026855 -60.98404297 -5.14397461 -60.30371094 -5.48779297 C-40.82310811 -14.87109473 -17.89454056 -11.16580324 0 0 Z " fill="#342EAA" transform="translate(291.3671875,253.1015625)"/>
<path d="M0 0 C4.84877258 2.02486196 7.60292921 4.69314465 10.11328125 9.296875 C11.73829166 13.27328295 11.62334461 16.406076 10.26171875 20.4453125 C8.13097523 25.30916163 5.74328468 27.82729206 0.9609375 30.37109375 C-3.27483262 31.78301712 -6.88312652 32.23185923 -11.1328125 30.53515625 C-16.42276664 27.59409966 -19.26600579 24.16677288 -21.0390625 18.37109375 C-21.7153398 13.55261801 -21.0865134 10.16842855 -18.43359375 6.015625 C-13.53246747 0.23586544 -7.40498332 -2.28391248 0 0 Z " fill="#DAF2F8" transform="translate(325.0390625,192.62890625)"/>
<path d="M0 0 C4.84877258 2.02486196 7.60292921 4.69314465 10.11328125 9.296875 C11.73829166 13.27328295 11.62334461 16.406076 10.26171875 20.4453125 C8.13097523 25.30916163 5.74328468 27.82729206 0.9609375 30.37109375 C-3.27483262 31.78301712 -6.88312652 32.23185923 -11.1328125 30.53515625 C-16.42276664 27.59409966 -19.26600579 24.16677288 -21.0390625 18.37109375 C-21.7153398 13.55261801 -21.0865134 10.16842855 -18.43359375 6.015625 C-13.53246747 0.23586544 -7.40498332 -2.28391248 0 0 Z " fill="#DAF2F8" transform="translate(197.0390625,192.62890625)"/>
<path d="M0 0 C1.2684375 -0.00386719 1.2684375 -0.00386719 2.5625 -0.0078125 C4.84698944 0.11666289 6.80991574 0.48622543 9 1.125 C7.6744419 4.74776315 6.05653045 7.76005348 3.875 10.9375 C3.06675781 12.12279297 3.06675781 12.12279297 2.2421875 13.33203125 C1.83226562 13.92371094 1.42234375 14.51539063 1 15.125 C-2.91597644 13.81967452 -3.53830346 12.15234726 -5.6875 8.6875 C-6.31011719 7.69878906 -6.93273437 6.71007812 -7.57421875 5.69140625 C-9 3.125 -9 3.125 -9 1.125 C-5.93537096 0.23114986 -3.18818621 -0.00972008 0 0 Z " fill="#6CAFE8" transform="translate(256,274.875)"/>
</svg>
