<?xml version="1.0" encoding="UTF-8"?>
<svg version="1.1" xmlns="http://www.w3.org/2000/svg" width="512" height="512">
<path d="M0 0 C2.92299423 1.47721214 5.21608335 3.1677601 7.625 5.375 C17.10428786 13.84773334 28.49328118 12.95215716 40.44140625 12.87109375 C42.31127478 12.87124899 44.18114363 12.87274207 46.05101013 12.87550354 C49.95529539 12.8768824 53.85921101 12.86441469 57.76342773 12.84155273 C62.74866344 12.81315002 67.73328668 12.81591777 72.71856785 12.82864285 C76.57493756 12.83562232 80.43116759 12.82778521 84.28751945 12.81538582 C86.12498373 12.81089475 87.96246312 12.81051385 89.79992867 12.81445122 C92.37417091 12.81738636 94.94759069 12.80074848 97.52172852 12.77905273 C98.26847336 12.78355438 99.0152182 12.78805603 99.78459167 12.79269409 C107.60361892 12.68409496 114.38739466 10.68452936 120.25 5.375 C127.2783466 -0.49814985 132.94021417 -2.28753856 142.15234375 -2.04296875 C149.40001088 -1.04489876 155.602467 2.7111357 160.1875 8.375 C163.59220253 13.50521504 165.35575058 17.78275444 165.227005 23.9354248 C165.21103775 24.84599136 165.1950705 25.75655792 165.17861938 26.69471741 C165.15617157 27.68684738 165.13372375 28.67897736 165.1105957 29.70117188 C165.07093497 31.88040344 165.03175815 34.05964386 164.99299622 36.2388916 C164.96005431 37.97360466 164.96005431 37.97360466 164.92644691 39.74336243 C164.79580078 47.1900778 164.72771188 54.637689 164.64788532 62.08509064 C164.57437055 68.61153869 164.47945271 75.13628414 164.3371582 81.66162109 C164.20043411 87.98821347 164.12458672 94.31307355 164.08791161 100.64100647 C164.06347974 103.03629615 164.01785247 105.43147919 163.94930458 107.82591248 C163.49440787 124.28011798 165.95391232 135.02427022 175.75813866 148.4052124 C177.71590844 151.10319402 179.43983247 153.91230138 181.1875 156.75 C200.21582386 184.56666312 226.76027547 200.2796651 258.40136719 210.42822266 C272.84815692 215.11913106 285.76968541 221.65807944 298.1875 230.375 C299.21875 231.08785156 300.25 231.80070313 301.3125 232.53515625 C308.33639596 237.65382043 314.52493169 243.43781124 320.6875 249.5625 C321.45352539 250.32296631 322.21955078 251.08343262 323.00878906 251.86694336 C326.2127484 255.1123149 329.17794602 258.29162229 331.81335449 262.01802063 C332.25924675 262.64705953 332.70513901 263.27609842 333.16454315 263.9241991 C333.50211891 264.4029634 333.83969467 264.8817277 334.1875 265.375 C334.25712685 251.59667238 334.31037578 237.81838688 334.34293652 224.0399189 C334.35856701 217.64145806 334.3797577 211.24311794 334.41381836 204.84472656 C334.44650477 198.66555475 334.46437269 192.48649878 334.47213173 186.30724716 C334.47765856 183.95423434 334.48845101 181.60122759 334.50469017 179.24826431 C334.52658747 175.94287857 334.52946174 172.63796657 334.52807617 169.33251953 C334.538862 168.36794327 334.54964783 167.403367 334.5607605 166.40956116 C334.50815359 154.74952034 331.14939593 146.33689593 322.9375 138.125 C315.04390683 133.10180435 307.53268646 131.16518722 298.1875 132.375 C291.59049212 134.05013182 285.47525094 136.98236762 281.1875 142.375 C277.31559712 148.96476127 274.37743467 155.82337972 271.625 162.9375 C269.14818856 169.03614063 266.57122921 171.50504438 260.8125 174.6875 C254.40002701 176.36695721 249.66192553 175.75093418 243.94921875 172.5859375 C239.77787845 169.71871911 237.74195636 166.29589898 236.80859375 161.37890625 C235.74480991 147.23284461 244.63409161 130.53307475 253.27734375 119.7734375 C264.16953493 107.14966721 279.47569125 97.53569497 296.41552734 96.19921875 C315.49593128 95.13007464 332.79147132 98.89063479 347.5625 111.8125 C349.12249324 113.31452903 350.66567085 114.83431633 352.1875 116.375 C353.14076172 117.29539063 353.14076172 117.29539063 354.11328125 118.234375 C365.81522771 130.37741479 370.33854627 147.61393575 370.33467102 164.03924561 C370.33834771 164.88684425 370.3420244 165.73444289 370.3458125 166.60772634 C370.35678488 169.43477955 370.36068213 172.26179593 370.36450195 175.08886719 C370.37077135 177.1212882 370.37741857 179.15370807 370.38441467 181.18612671 C370.40539642 187.84803478 370.41580984 194.50994292 370.42578125 201.171875 C370.42983066 203.46947491 370.43394763 205.76707471 370.43813133 208.06467438 C370.45716809 218.85818661 370.47140371 229.65169206 370.4797433 240.44521785 C370.4895179 252.88888942 370.51584974 265.33238322 370.55624419 277.77599216 C370.58642874 287.40595102 370.6012143 297.03585898 370.60452431 306.66586423 C370.60687158 312.41238129 370.61579065 318.15870809 370.64098549 323.90517426 C370.66431285 329.31266502 370.66848058 334.71984083 370.65822411 340.12736893 C370.65772982 342.10621058 370.66401851 344.08506799 370.67778015 346.06386185 C370.83199226 369.56216985 370.83199226 369.56216985 363.0625 378.3125 C354.26783572 385.80944922 344.45958915 385.95127507 333.42269897 385.87620544 C331.83171677 385.88010294 330.24073807 385.88574697 328.64976752 385.89297634 C324.29807489 385.90768428 319.94674584 385.89757766 315.59506512 385.88323963 C310.89427631 385.87210731 306.19353757 385.88407983 301.49275208 385.89308167 C292.29246115 385.9070001 283.09230767 385.89946856 273.89202331 385.88440608 C263.17581902 385.86753062 252.45964881 385.87075813 241.74343534 385.87450016 C222.62319997 385.88037604 203.5030305 385.86621708 184.3828125 385.84155273 C165.83233165 385.81762605 147.28193882 385.81055145 128.73144531 385.82104492 C108.5246806 385.83245484 88.31795657 385.83438379 68.11119235 385.81994683 C65.95653002 385.818421 63.80186769 385.81690064 61.64720535 385.81538582 C60.58709847 385.814628 59.52699159 385.81387019 58.43476027 385.81308941 C50.9658734 385.80834769 43.49700472 385.81019719 36.02811813 385.81445122 C26.92704781 385.81937836 17.8260607 385.81339115 8.72500943 385.79355692 C4.08199794 385.78368739 -0.56088687 385.77857623 -5.20390511 385.78644943 C-9.45505934 385.79351068 -13.70595805 385.78669124 -17.95707862 385.7688458 C-19.49391913 385.76480425 -21.03078296 385.76579628 -22.56761475 385.77236467 C-31.88964155 385.80879336 -39.16364372 385.59343897 -47.0625 380.125 C-52.35537521 374.83212479 -54.91284187 369.20421263 -55.07421875 361.71875 C-55.01340834 356.27970737 -53.63764041 351.8841811 -51.625 346.875 C-51.14244751 345.63182007 -51.14244751 345.63182007 -50.65014648 344.36352539 C-43.40458369 325.9612063 -33.86479243 313.45026308 -15.3203125 305.28515625 C-12.82357494 304.37901941 -10.417455 303.86760193 -7.8125 303.375 C-7.73273679 286.84107216 -7.7046073 270.30797824 -7.73734188 253.77392673 C-7.75134881 246.09617657 -7.74868828 238.41911812 -7.70629883 230.74145508 C-7.669379 224.04670582 -7.66423264 217.3528002 -7.69667059 210.65801471 C-7.71274126 207.11532257 -7.71328811 203.57421186 -7.67573357 200.03164864 C-7.634326 196.06930896 -7.6638838 192.10916367 -7.69897461 188.14672852 C-7.66446449 186.39992294 -7.66446449 186.39992294 -7.6292572 184.61782837 C-7.75169236 178.20110508 -8.60093495 174.89959639 -13.21730042 170.29234314 C-14.74655848 168.98366423 -16.27803868 167.67757405 -17.8125 166.375 C-24.46298621 158.42057887 -29.66248545 148.18970067 -32.8125 138.375 C-33.19211128 137.21386185 -33.19211128 137.21386185 -33.57939148 136.02926636 C-36.80027877 124.39073455 -36.26605392 112.52324924 -36.24609375 100.54296875 C-36.25066153 98.13690545 -36.25596886 95.73084346 -36.26197815 93.32478333 C-36.2708736 88.30443996 -36.26852412 83.28425602 -36.25854492 78.26391602 C-36.24701826 71.84040402 -36.26734199 65.41743876 -36.29646206 58.99399853 C-36.31482257 54.03451569 -36.31453255 49.0751642 -36.30882454 44.1156559 C-36.30867153 41.7470453 -36.31469883 39.37842569 -36.32711601 37.00984764 C-36.34203312 33.70047077 -36.33134518 30.39210927 -36.31420898 27.08276367 C-36.32387695 26.11271896 -36.33354492 25.14267426 -36.34350586 24.14323425 C-36.26164583 16.57371784 -34.37279762 11.41967825 -29.5 5.625 C-21.01324795 -1.48018776 -10.60175837 -4.39763127 0 0 Z M144.1875 167.375 C143.2271716 168.46296698 142.32053492 169.59841322 141.4375 170.75 C129.14418161 185.10067126 109.6626773 193.94722721 91.1875 196.375 C82.05626886 197.01084816 72.89585784 196.79874254 63.75 196.6875 C61.31055453 196.67598017 58.87110018 196.66620349 56.43164062 196.65820312 C54.08071976 196.64478747 51.72980689 196.62986684 49.37890625 196.61328125 C48.30266495 196.60589432 47.22642365 196.59850739 46.11756897 196.59089661 C45.09207443 196.57806137 44.0665799 196.56522614 43.01000977 196.55200195 C41.68127586 196.53723564 41.68127586 196.53723564 40.32569885 196.52217102 C35.92791543 196.3159297 31.56404778 195.8441016 27.1875 195.375 C27.18511165 196.01276399 27.18272329 196.65052797 27.18026257 197.30761814 C27.12107342 212.84061062 27.04549843 228.37342445 26.95178509 243.90624332 C26.90685891 251.41786863 26.86743698 258.92944686 26.84106445 266.44116211 C26.81805855 272.98995108 26.78463173 279.53859069 26.73879844 286.08726114 C26.71490095 289.55332956 26.69614952 293.01925038 26.68988609 296.48539925 C26.68269083 300.3590017 26.65222556 304.23223492 26.61987305 308.10571289 C26.62130814 309.24938828 26.62274323 310.39306366 26.6242218 311.57139587 C26.53530536 319.09844039 25.84914803 324.20979694 20.875 330.125 C16.00247811 334.20432065 12.05430066 335.4643692 5.8125 336.25 C-1.80875583 337.30898999 -6.73647455 339.79557109 -11.8125 345.5625 C-14.0056746 348.07146687 -14.0056746 348.07146687 -13.8125 350.375 C8.2975 350.375 30.4075 350.375 53.1875 350.375 C53.21328125 343.1046875 53.2390625 335.834375 53.265625 328.34375 C53.29079808 323.73173579 53.31713464 319.11978685 53.34765625 314.5078125 C53.39596707 307.19107839 53.44002098 299.8744954 53.45849609 292.55761719 C53.47366481 286.65708156 53.50811504 280.75694186 53.55580902 274.85658264 C53.57062044 272.60803167 53.57854087 270.35942418 53.57938385 268.11082458 C53.58175588 264.95561755 53.60885608 261.80150257 53.64160156 258.64648438 C53.63405602 257.25896469 53.63405602 257.25896469 53.62635803 255.84341431 C53.72087403 249.93826851 54.73049909 245.26329715 58.1875 240.375 C63.10659828 236.35940956 67.2351748 235.7281933 73.53515625 235.99609375 C77.75424318 236.59882045 79.82181689 237.69619099 83.1875 240.375 C87.32528948 246.15166201 87.77091146 250.63009795 87.73339844 257.62475586 C87.74373611 258.63039581 87.75407379 259.63603577 87.76472473 260.67214966 C87.79409493 263.97821226 87.79565072 267.28366108 87.796875 270.58984375 C87.81186049 272.88913639 87.82858841 275.18841828 87.84698486 277.48768616 C87.89062877 283.52597556 87.91065111 289.56411975 87.92572021 295.60253906 C87.94530179 301.76961848 87.98727072 307.93654134 88.02734375 314.10351562 C88.102614 326.19396209 88.15292493 338.28437345 88.1875 350.375 C96.38440561 350.3981271 104.58129768 350.41591696 112.77822781 350.42681217 C116.58401577 350.4320402 120.38978148 350.43913638 124.19555664 350.45043945 C127.86542544 350.4612712 131.53527278 350.46727744 135.20515633 350.46987724 C136.60824992 350.47173097 138.01134229 350.4753506 139.4144268 350.48073006 C141.3731968 350.48794419 143.3319882 350.48840809 145.29077148 350.48852539 C146.40773911 350.490746 147.52470673 350.49296661 148.67552185 350.49525452 C151.12655414 350.66010776 151.12655414 350.66010776 152.1875 349.375 C152.57913671 347.14869595 152.95017785 344.91876235 153.3125 342.6875 C156.17992511 327.25890296 164.60304969 313.61861139 177.4375 304.5 C182.99564322 300.84263689 188.42844896 298.41161088 194.703125 296.25 C197.09940139 295.60711498 197.09940139 295.60711498 198.1875 294.375 C198.29673525 292.68871611 198.34334843 290.99829443 198.36328125 289.30859375 C198.38712891 288.26509766 198.41097656 287.22160156 198.43554688 286.14648438 C198.47798338 283.95135962 198.50951808 281.75599269 198.52929688 279.56054688 C198.73964622 271.57216349 199.72031572 265.67305334 205.75 259.9375 C210.40780642 256.95172666 214.81333879 256.76627624 220.1875 257.375 C225.69135249 258.97787634 228.49681664 261.17206837 231.32337952 266.26750183 C232.90909483 270.13489322 232.77727909 274.01939363 232.75390625 278.1484375 C232.76010483 279.07161774 232.76630341 279.99479797 232.77268982 280.94595337 C232.77976456 282.89071606 232.77665515 284.83553961 232.76391602 286.78027344 C232.75007088 289.73487454 232.78413091 292.68629176 232.82226562 295.640625 C232.8232172 297.53906327 232.82135595 299.43750545 232.81640625 301.3359375 C232.82966446 302.20809906 232.84292267 303.08026062 232.85658264 303.97885132 C232.76004071 310.43098664 231.03246055 315.16486839 227.1875 320.375 C222.55689831 324.71301755 217.3177642 325.93457545 211.25 327.3125 C201.23819908 329.59821521 194.99268473 333.27371674 189.28125 342.03125 C187.82964822 344.86848164 187.82964822 344.86848164 187.1875 350.375 C234.3775 350.375 281.5675 350.375 330.1875 350.375 C326.33301001 319.53908009 315.74859268 295.77781702 294.1875 273.375 C293.24003906 272.31539062 293.24003906 272.31539062 292.2734375 271.234375 C278.07723365 255.84994263 258.33505335 247.70213661 239 241.0625 C213.33515492 232.235347 191.61009552 219.36051883 172.1875 200.375 C171.48753906 199.73691406 170.78757812 199.09882813 170.06640625 198.44140625 C161.09708214 190.06879394 153.37053284 179.43304479 147.25463867 168.82617188 C146.90248291 168.34728516 146.55032715 167.86839844 146.1875 167.375 C145.5275 167.375 144.8675 167.375 144.1875 167.375 Z " fill="#2140AE" transform="translate(99.8125,71.625)"/>
<path d="M0 0 C0.11640678 10.33644717 0.2049736 20.67273561 0.25906086 31.00970745 C0.2850344 35.81082684 0.32020554 40.61149419 0.37719727 45.41235352 C0.43195789 50.05489793 0.46151233 54.69701055 0.47438622 59.33985329 C0.48354775 61.10151773 0.50143585 62.86316146 0.52865028 64.62463951 C0.76658571 80.67960079 -2.31114822 93.41998393 -13.4375 105.6875 C-14.283125 106.450625 -15.12875 107.21375 -16 108 C-16.52335937 108.49242187 -17.04671875 108.98484375 -17.5859375 109.4921875 C-30.56055758 121.29263382 -46.93931429 122.67183585 -63.71362305 122.52148438 C-66.56189828 122.50000454 -69.40765945 122.52140309 -72.25585938 122.546875 C-89.38010652 122.57409526 -104.27362844 119.37345619 -117.3125 107.3125 C-130.01609308 93.57888586 -132.62384463 77.78665613 -132.390625 59.88671875 C-132.38314564 58.17894663 -132.37746075 56.4711658 -132.37347412 54.76338196 C-132.3583509 50.31303349 -132.31918767 45.86322432 -132.2746582 41.41308594 C-132.23341462 36.85424083 -132.2154016 32.29530684 -132.1953125 27.73632812 C-132.15267741 18.82398446 -132.08459202 9.91203743 -132 1 C-128.65780975 1.61168498 -125.53368053 2.45043742 -122.31730652 3.53625488 C-117.10465002 5.11912507 -112.34385701 5.4380659 -106.9230957 5.41992188 C-105.97037277 5.42839142 -105.01764984 5.43686096 -104.03605652 5.44558716 C-100.91582534 5.46880471 -97.79609194 5.4699827 -94.67578125 5.46875 C-92.48398141 5.47586235 -90.2921834 5.48356289 -88.10038757 5.49182129 C-83.51519595 5.50523239 -78.93017639 5.50685073 -74.3449707 5.50097656 C-68.50597897 5.49509345 -62.66782242 5.52563126 -56.82899189 5.56609344 C-52.30327506 5.59210954 -47.77775539 5.5948351 -43.25197411 5.59120178 C-41.10125829 5.59288101 -38.95053217 5.60240642 -36.79989052 5.62034607 C-24.058428 5.71491913 -11.71921084 0 0 0 Z " fill="#A5B8FE" transform="translate(230,113)"/>
<path d="M0 0 C0.91823044 -0.01283524 1.83646088 -0.02567047 2.78251648 -0.03889465 C3.77830215 -0.04628159 4.77408783 -0.05366852 5.80004883 -0.0612793 C7.33572258 -0.07338692 7.33572258 -0.07338692 8.90242004 -0.08573914 C11.07376407 -0.09958817 13.24512994 -0.11030664 15.41650391 -0.11816406 C18.72641768 -0.13533894 22.03532289 -0.17921397 25.3449707 -0.22338867 C27.4549894 -0.23351888 29.56501659 -0.24203395 31.67504883 -0.2487793 C32.66071335 -0.26628738 33.64637787 -0.28379547 34.66191101 -0.30183411 C40.86220864 -0.28241274 44.50247701 0.54061034 49.56958008 4.17700195 C54.21724639 9.06928228 54.93704352 13.36791014 54.85083008 19.9309082 C54.26208888 24.63266086 51.45877492 27.3767266 48.06958008 30.42700195 C44.00305858 33.273567 41.60507757 34.45675181 36.56958008 34.17700195 C36.48708008 35.20825195 36.40458008 36.23950195 36.31958008 37.30200195 C35.27434304 42.70239333 33.07311855 45.78622886 29.06958008 49.48950195 C24.60951723 52.50004437 19.89904693 52.92806582 14.56958008 52.17700195 C9.83806807 49.62926472 5.7996026 46.57554587 3.31958008 41.73950195 C2.54194323 39.08257605 2.41229282 36.92952898 2.56958008 34.17700195 C1.53833008 34.09450195 0.50708008 34.01200195 -0.55541992 33.92700195 C-6.95762976 32.68786456 -10.7643351 29.47245781 -14.43041992 24.17700195 C-15.88058547 19.82650531 -15.94112099 15.7236601 -15.43041992 11.17700195 C-12.19797908 4.71212027 -7.34916959 0.08938371 0 0 Z " fill="#2240AE" transform="translate(139.430419921875,170.822998046875)"/>
</svg>
